# xmcd
#
# Track frame offsets: 
#        150
#        16244
#        31444
#        66068
#        95265
#        136275
#        166546
#
# Disc length: 2867 seconds
#
# Revision: 0
# Processed by: cddbd v1.5.2PL0 Copyright (c) Steve Scherf et al.
# Submitted via: ExactAudioCopy v0.99pb4
#
DISCID=4a0b3107
DTITLE=The Nighthawks - Backtrack
DYEAR=1988
DGENRE=Blues
TTITLE0=Backtrack
TTITLE1=Pretty Girls and Cadillacs
TTITLE2=Screamin' and Cryin' (featuring Bob Margolin)
TTITLE3=Pinetop's Boogie Woogie (featuring Pinetop Perkins)
TTITLE4=On My Job (featuring Luther "Guitar Jr." Johnson)
TTITLE5=Sugar Mama (featuring John Hammond)
TTITLE6=Hip Shake Mama (featuring Toru Oki)
EXTD=
EXTT0=
EXTT1=
EXTT2=
EXTT3=
EXTT4=
EXTT5=
EXTT6=
PLAYORDER=
